<svg width="24" height="24" viewBox="0 0 24 24" fill="none" xmlns="http://www.w3.org/2000/svg">
<g clip-path="url(#clip0_2812_456)">
<path d="M23.6431 4.93708C22.8081 5.30708 21.9111 5.55708 20.9681 5.67008C21.9411 5.08787 22.6691 4.17154 23.0161 3.09208C22.102 3.63507 21.1015 4.01727 20.0581 4.22208C19.3565 3.47294 18.4272 2.9764 17.4144 2.80955C16.4017 2.6427 15.3622 2.81487 14.4574 3.29933C13.5525 3.78379 12.8329 4.55344 12.4103 5.48878C11.9877 6.42412 11.8857 7.47283 12.1201 8.47208C10.2678 8.37907 8.45575 7.89763 6.80154 7.05898C5.14734 6.22034 3.68796 5.04324 2.51812 3.60408C2.11812 4.29408 1.88812 5.09408 1.88812 5.94608C1.88767 6.71307 2.07655 7.46832 2.438 8.14481C2.79944 8.8213 3.32228 9.39812 3.96012 9.82408C3.22039 9.80054 2.49699 9.60066 1.85012 9.24108V9.30108C1.85004 10.3768 2.22215 11.4195 2.9033 12.2521C3.58445 13.0847 4.53269 13.656 5.58712 13.8691C4.9009 14.0548 4.18146 14.0821 3.48312 13.9491C3.78062 14.8747 4.36011 15.6841 5.14049 16.264C5.92086 16.8439 6.86304 17.1653 7.83512 17.1831C6.18495 18.4785 4.14701 19.1812 2.04912 19.1781C1.6775 19.1782 1.30619 19.1565 0.937119 19.1131C3.06659 20.4823 5.54546 21.2089 8.07712 21.2061C16.6471 21.2061 21.3321 14.1081 21.3321 7.95208C21.3321 7.75208 21.3271 7.55008 21.3181 7.35008C22.2294 6.69105 23.016 5.87497 23.6411 4.94008L23.6431 4.93708Z" fill="white"/>
</g>
<defs>
<clipPath id="clip0_2812_456">
<rect width="24" height="24" fill="white" transform="translate(0.00012207)"/>
</clipPath>
</defs>
</svg>
