<svg width="24" height="25" viewBox="0 0 24 25" fill="none" xmlns="http://www.w3.org/2000/svg">
<path d="M21.75 4.73663H2.25C1.83516 4.73663 1.5 5.07179 1.5 5.48663V20.4866C1.5 20.9015 1.83516 21.2366 2.25 21.2366H21.75C22.1648 21.2366 22.5 20.9015 22.5 20.4866V5.48663C22.5 5.07179 22.1648 4.73663 21.75 4.73663ZM20.8125 7.33351V19.5491H3.1875V7.33351L2.54063 6.8296L3.46172 5.64601L4.46484 6.42648H19.5375L20.5406 5.64601L21.4617 6.8296L20.8125 7.33351ZM19.5375 6.42413L12 12.2835L4.4625 6.42413L3.45938 5.64366L2.53828 6.82726L3.18516 7.33116L11.1914 13.5562C11.4217 13.735 11.7049 13.8321 11.9965 13.8321C12.2881 13.8321 12.5713 13.735 12.8016 13.5562L20.8125 7.33351L21.4594 6.8296L20.5383 5.64601L19.5375 6.42413Z" fill="black"/>
</svg>
