<svg width="24" height="25" viewBox="0 0 24 25" fill="none" xmlns="http://www.w3.org/2000/svg">
<path d="M20.557 6.58116L18.0609 4.08741C17.7562 3.78273 17.3484 3.61163 16.9172 3.61163C16.4859 3.61163 16.0781 3.78038 15.7734 4.08741L13.0852 6.77101C12.7805 7.0757 12.6094 7.48585 12.6094 7.9171C12.6094 8.3507 12.7781 8.75616 13.0852 9.0632L15.1852 11.1655C14.7068 12.2802 14.0194 13.293 13.1602 14.1491C12.3 15.014 11.2945 15.696 10.1789 16.1788L8.07891 14.0765C7.77422 13.7718 7.36641 13.6007 6.93516 13.6007C6.72244 13.5999 6.51172 13.6416 6.31532 13.7233C6.11892 13.805 5.9408 13.9251 5.79141 14.0765L3.10078 16.7601C2.79609 17.0648 2.625 17.4749 2.625 17.9062C2.625 18.3398 2.79375 18.7452 3.10078 19.0523L5.59453 21.546C6.11484 22.0663 6.83203 22.364 7.56797 22.364C7.72031 22.364 7.86797 22.3523 8.01797 22.3265C11.1211 21.8155 14.2008 20.1632 16.6875 17.6788C19.1719 15.1898 20.8219 12.1101 21.3375 9.0046C21.4852 8.12335 21.1898 7.21632 20.557 6.58116ZM19.6758 8.7257C19.2188 11.489 17.7328 14.2452 15.4945 16.4835C13.2562 18.7218 10.5023 20.2077 7.73906 20.6648C7.39219 20.7234 7.03594 20.6062 6.78281 20.3554L4.33359 17.9062L6.93047 15.3069L9.73828 18.1194L9.75937 18.1405L10.2656 17.953C11.8006 17.3887 13.1945 16.4973 14.3508 15.3406C15.507 14.184 16.3979 12.7898 16.9617 11.2546L17.1492 10.7484L14.318 7.91945L16.9148 5.32023L19.3641 7.76945C19.6172 8.02257 19.7344 8.37882 19.6758 8.7257Z" fill="black"/>
</svg>
