<svg width="27" height="21" viewBox="0 0 27 21" fill="none" xmlns="http://www.w3.org/2000/svg">
<rect x="0.765381" y="0.273193" width="25.4545" height="20" rx="2" fill="white"/>
<mask id="mask0_1393_641" style="mask-type:alpha" maskUnits="userSpaceOnUse" x="0" y="0" width="27" height="21">
<rect x="0.765381" y="0.273193" width="25.4545" height="20" rx="2" fill="white"/>
</mask>
<g mask="url(#mask0_1393_641)">
<rect x="3.41162" y="0.273193" width="20.1621" height="20" fill="#FF0000"/>
<path fill-rule="evenodd" clip-rule="evenodd" d="M11.6745 12.2732H8.37148C8.18739 12.2732 8.03815 12.124 8.03815 11.9399V8.60653C8.03815 8.42243 8.18739 8.27319 8.37148 8.27319H11.6745V4.60653C11.6745 4.42243 11.8237 4.27319 12.0078 4.27319H14.9775C15.1616 4.27319 15.3109 4.42243 15.3109 4.60653V8.27319H18.6139C18.798 8.27319 18.9472 8.42243 18.9472 8.60653V11.9399C18.9472 12.124 18.798 12.2732 18.6139 12.2732H15.3109V15.9399C15.3109 16.124 15.1616 16.2732 14.9775 16.2732H12.0078C11.8237 16.2732 11.6745 16.124 11.6745 15.9399V12.2732Z" fill="white"/>
</g>
</svg>
