<svg width="356" height="477" viewBox="0 0 356 477" fill="none" xmlns="http://www.w3.org/2000/svg">
<g filter="url(#filter0_d)">
<rect x="12.667" y="10.8232" width="322.182" height="424.78"/>
</g>
<rect x="0.218506" y="379.753" width="355.743" height="96.6193" rx="12.4904" fill="#0669DD"/>
<path d="M81.595 402.616C80.3251 401.013 78.3683 400.263 76.2866 400.243C74.2048 400.201 72.2064 401.013 70.9782 402.616C69.9581 403.927 69.4585 405.53 69.3544 407.175H65.8155V400.534H64.1293V415.522H65.8155V408.882H69.3752C69.5001 410.505 69.9581 412.129 70.9782 413.42C72.2064 415.044 74.1424 415.835 76.2866 415.835C78.41 415.835 80.346 415.044 81.595 413.42C82.8024 411.879 83.2188 409.985 83.2396 408.028C83.1979 406.092 82.8232 404.177 81.595 402.616ZM81.4285 408.028C81.4285 409.59 81.137 411.213 80.2211 412.4C79.3467 413.607 77.8271 414.211 76.2866 414.211C74.7461 414.232 73.2264 413.607 72.3313 412.4C71.4153 411.213 71.1239 409.59 71.1239 408.028C71.1447 406.467 71.4153 404.843 72.3313 403.677C73.2264 402.449 74.7461 401.866 76.2866 401.845C77.8271 401.825 79.3467 402.449 80.2211 403.677C81.137 404.843 81.4493 406.467 81.4285 408.028ZM94.9975 404.281H87.4824L86.7954 410.193C86.4207 413.378 85.255 413.899 84.4847 413.899V417.042H86.1085V415.522H94.3938V417.042H95.9967V413.899H94.9975V404.281ZM93.3945 413.899H87.1701C87.7947 413.191 88.1694 411.963 88.3567 410.381L88.898 405.822H93.3945V413.899ZM107.843 404.281H106.323L100.328 412.67V404.281H98.621V415.522H100.141L106.136 407.05V415.522H107.843V404.281ZM118.587 404.281V408.694H112.446V404.281H110.76V415.522H112.446V410.381H118.587V415.522H120.274V404.281H118.587ZM124.608 407.112C124.691 406.987 124.774 406.862 124.878 406.738C125.461 405.946 126.439 405.593 127.48 405.593C128.334 405.593 129.187 405.78 129.791 406.28C130.332 406.696 130.645 407.32 130.749 408.028L128.417 408.34C126.668 408.611 125.44 408.715 124.212 409.381C123.192 410.006 122.567 411.047 122.567 412.233C122.567 413.024 122.796 413.628 123.234 414.294C123.837 415.169 125.003 415.751 126.127 415.793C127.126 415.856 128.105 415.627 129.021 415.169C129.791 414.794 130.582 414.107 130.998 413.295V415.522H132.497V408.486C132.497 407.841 132.372 407.133 132.06 406.488C131.248 404.739 129.562 403.99 127.501 403.99C125.815 403.99 124.358 404.573 123.379 405.884C123.254 406.03 123.129 406.238 123.046 406.384L124.608 407.112ZM130.811 409.465C130.811 410.401 130.811 411.13 130.374 412.046C129.708 413.524 127.834 414.378 126.356 414.232C125.17 414.128 124.254 413.191 124.274 412.15C124.295 410.505 126.273 410.172 128.084 409.902C129.229 409.714 129.978 409.59 130.811 409.465ZM149.207 415.522H150.977L145.876 400.534H143.586L138.486 415.522H140.256L141.234 412.65H148.229L149.207 415.522ZM141.775 411.047L144.711 402.387L147.667 411.047H141.775ZM152.857 413.607V415.522H154.772V413.607H152.857ZM177.664 400.534H175.957L170.253 412.795L164.529 400.534H162.842V415.522H164.55V404.281L169.754 415.522H170.753L175.957 404.281V415.502H177.664V400.534ZM181.097 413.607V415.522H183.012V413.607H181.097ZM190.666 408.944V410.36H199.409V408.944H190.666ZM216.274 404.281H206.761V415.522H208.447V405.967H214.588V415.522H216.274V404.281ZM223.939 415.835C225.583 415.835 227.041 415.252 228.019 414.003C228.977 412.795 229.31 411.401 229.31 409.881C229.31 408.445 228.997 406.987 228.019 405.801C227.061 404.573 225.542 403.969 223.939 403.969C222.315 403.969 220.795 404.614 219.838 405.801C218.922 406.946 218.568 408.424 218.568 409.881C218.568 411.359 218.901 412.816 219.838 414.003C220.816 415.231 222.315 415.835 223.939 415.835ZM226.687 412.962C226.062 413.795 225.021 414.232 223.939 414.232C222.856 414.232 221.815 413.795 221.212 412.962C220.566 412.129 220.358 411.005 220.358 409.881C220.358 408.798 220.566 407.654 221.212 406.821C221.815 405.988 222.856 405.572 223.939 405.572C225.021 405.572 226.062 405.988 226.687 406.821C227.311 407.654 227.519 408.798 227.519 409.881C227.519 411.005 227.311 412.129 226.687 412.962ZM241.077 404.281H233.562L232.875 410.193C232.5 413.378 231.334 413.899 230.564 413.899V417.042H232.188V415.522H240.473V417.042H242.076V413.899H241.077V404.281ZM239.474 413.899H233.249C233.874 413.191 234.249 411.963 234.436 410.381L234.977 405.822H239.474V413.899ZM254.214 404.281H244.7V415.522H246.386V405.967H252.527V415.522H254.214V404.281ZM266.354 404.281H264.834L258.839 412.67V404.281H257.132V415.522H258.652L264.647 407.05V415.522H266.354V404.281ZM278.701 406.779C278.535 406.425 278.327 406.113 278.098 405.801C277.098 404.573 275.62 403.969 273.997 403.969C272.394 403.969 270.937 404.531 269.916 405.801C268.98 406.987 268.667 408.445 268.647 409.902C268.667 411.338 268.98 412.816 269.916 413.982C270.895 415.231 272.394 415.835 273.997 415.835C275.62 415.835 277.119 415.21 278.098 413.982C278.327 413.691 278.514 413.378 278.701 413.066L277.098 412.358C276.994 412.566 276.869 412.775 276.745 412.962C276.12 413.795 275.1 414.211 273.997 414.211C272.935 414.211 271.894 413.795 271.29 412.962C270.645 412.129 270.458 411.005 270.437 409.902C270.458 408.798 270.645 407.674 271.29 406.842C271.894 405.988 272.935 405.572 273.997 405.572C275.1 405.572 276.12 405.988 276.745 406.842C276.869 407.029 277.015 407.237 277.119 407.466L278.701 406.779ZM282.299 407.112C282.382 406.987 282.465 406.862 282.57 406.738C283.152 405.946 284.131 405.593 285.172 405.593C286.025 405.593 286.879 405.78 287.482 406.28C288.024 406.696 288.336 407.32 288.44 408.028L286.108 408.34C284.36 408.611 283.132 408.715 281.903 409.381C280.883 410.006 280.259 411.047 280.259 412.233C280.259 413.024 280.488 413.628 280.925 414.294C281.529 415.169 282.694 415.751 283.819 415.793C284.818 415.856 285.796 415.627 286.712 415.169C287.482 414.794 288.273 414.107 288.69 413.295V415.522H290.189V408.486C290.189 407.841 290.064 407.133 289.751 406.488C288.94 404.739 287.253 403.99 285.192 403.99C283.506 403.99 282.049 404.573 281.071 405.884C280.946 406.03 280.821 406.238 280.738 406.384L282.299 407.112ZM288.502 409.465C288.502 410.401 288.502 411.13 288.065 412.046C287.399 413.524 285.526 414.378 284.048 414.232C282.861 414.128 281.945 413.191 281.966 412.15C281.987 410.505 283.964 410.172 285.775 409.902C286.92 409.714 287.67 409.59 288.502 409.465ZM300.713 404.281V408.694H294.572V404.281H292.886V415.522H294.572V410.381H300.713V415.522H302.399V404.281H300.713ZM310.064 415.835C311.709 415.835 313.166 415.252 314.144 414.003C315.102 412.795 315.435 411.401 315.435 409.881C315.435 408.445 315.123 406.987 314.144 405.801C313.187 404.573 311.667 403.969 310.064 403.969C308.44 403.969 306.921 404.614 305.963 405.801C305.047 406.946 304.693 408.424 304.693 409.881C304.693 411.359 305.026 412.816 305.963 414.003C306.941 415.231 308.44 415.835 310.064 415.835ZM312.812 412.962C312.187 413.795 311.147 414.232 310.064 414.232C308.982 414.232 307.941 413.795 307.337 412.962C306.692 412.129 306.483 411.005 306.483 409.881C306.483 408.798 306.692 407.654 307.337 406.821C307.941 405.988 308.982 405.572 310.064 405.572C311.147 405.572 312.187 405.988 312.812 406.821C313.436 407.654 313.645 408.798 313.645 409.881C313.645 411.005 313.436 412.129 312.812 412.962Z" fill="white"/>
<path d="M76.12 447.268V433.903H66.8771L65.8363 442.813C65.5032 445.769 64.5456 447.268 63.0468 447.268V450.64H64.6497V448.892H75.7037V450.64H77.3274V447.268H76.12ZM74.4963 447.268H65.9195C66.7522 446.414 67.2102 444.978 67.4392 443L68.3135 435.506H74.4963V447.268ZM81.0342 443.729H89.9024C89.9232 443.583 89.9232 443.417 89.9232 443.271C89.9232 441.814 89.5902 440.356 88.6534 439.17C87.675 437.942 86.1969 437.338 84.5732 437.338C82.9494 437.338 81.4714 437.942 80.4722 439.17C79.5354 440.356 79.2231 441.793 79.2023 443.271C79.2023 444.707 79.5354 446.185 80.4722 447.372C81.4506 448.579 82.9702 449.162 84.5732 449.204C86.1553 449.245 87.7166 448.6 88.695 447.393C88.9448 447.101 89.153 446.768 89.3195 446.456L87.6541 445.727C87.5501 445.936 87.446 446.123 87.3003 446.331C86.6757 447.164 85.6557 447.601 84.5732 447.601C83.4907 447.601 82.4498 447.164 81.8461 446.331C81.3049 445.623 81.0759 444.686 81.0342 443.729ZM84.5732 438.941C85.6557 438.941 86.6757 439.378 87.3003 440.211C87.7374 440.794 87.9872 441.543 88.0705 442.313H81.0759C81.1591 441.543 81.4089 440.794 81.8461 440.211C82.4498 439.378 83.4907 438.941 84.5732 438.941ZM102.174 437.65L97.9483 444.978L93.7224 437.65H92.1611V448.892H93.8889V441.397L97.3654 447.476H98.5312L102.029 441.397V448.892H103.736L103.715 437.65H102.174ZM115.864 437.65H114.345L108.349 446.04V437.65H106.642V448.892H108.162L114.157 440.419V448.892H115.864V437.65ZM126.609 437.65V442.064H120.467V437.65H118.781V448.892H120.467V443.75H126.609V448.892H128.295V437.65H126.609ZM145.226 448.892H146.995L141.895 433.903H139.605L134.505 448.892H136.274L137.253 446.019H144.247L145.226 448.892ZM137.794 444.416L140.729 435.756L143.685 444.416H137.794ZM148.875 446.976V448.892H150.791V446.976H148.875ZM168.666 442.043C168.312 441.543 167.875 441.148 167.375 440.835C167.604 440.648 167.813 440.398 168 440.148C168.541 439.482 168.853 438.608 168.812 437.754C168.749 436.859 168.437 436.026 167.896 435.381C167.375 434.736 166.647 434.278 165.856 434.07C165.398 433.903 164.648 433.903 164.045 433.903H158.861V448.892H164.315C165.002 448.892 165.668 448.871 166.335 448.683C167.188 448.434 167.979 447.955 168.583 447.247C169.166 446.539 169.478 445.602 169.52 444.666C169.561 443.729 169.249 442.771 168.666 442.043ZM164.648 435.506C165.377 435.506 165.918 435.693 166.439 436.255C166.813 436.63 167.063 437.171 167.063 437.754C167.063 438.275 166.897 438.795 166.584 439.212C166.147 439.857 165.315 440.232 164.648 440.232H160.568V435.506H164.648ZM167.042 446.435C166.293 447.268 165.502 447.268 164.294 447.268H160.568V441.835H165.023C165.793 441.835 166.688 442.188 167.188 442.896C167.584 443.396 167.792 444.041 167.792 444.666C167.771 445.353 167.5 445.977 167.042 446.435ZM171.378 446.976V448.892H173.293V446.976H171.378ZM185.592 442.313V443.729H194.335V442.313H185.592ZM211.2 437.65H201.686V448.892H203.373V439.336H209.514V448.892H211.2V437.65ZM218.865 449.204C220.509 449.204 221.966 448.621 222.945 447.372C223.902 446.165 224.235 444.77 224.235 443.25C224.235 441.814 223.923 440.356 222.945 439.17C221.987 437.942 220.467 437.338 218.865 437.338C217.241 437.338 215.721 437.983 214.764 439.17C213.848 440.315 213.494 441.793 213.494 443.25C213.494 444.728 213.827 446.185 214.764 447.372C215.742 448.6 217.241 449.204 218.865 449.204ZM221.612 446.331C220.988 447.164 219.947 447.601 218.865 447.601C217.782 447.601 216.741 447.164 216.137 446.331C215.492 445.498 215.284 444.374 215.284 443.25C215.284 442.168 215.492 441.023 216.137 440.19C216.741 439.357 217.782 438.941 218.865 438.941C219.947 438.941 220.988 439.357 221.612 440.19C222.237 441.023 222.445 442.168 222.445 443.25C222.445 444.374 222.237 445.498 221.612 446.331ZM236.002 437.65H228.487L227.8 443.562C227.426 446.747 226.26 447.268 225.49 447.268V450.411H227.113V448.892H235.399V450.411H237.002V447.268H236.002V437.65ZM234.399 447.268H228.175C228.8 446.56 229.174 445.332 229.362 443.75L229.903 439.191H234.399V447.268ZM249.139 437.65H239.626V448.892H241.312V439.336H247.453V448.892H249.139V437.65ZM261.28 437.65H259.76L253.765 446.04V437.65H252.058V448.892H253.577L259.573 440.419V448.892H261.28V437.65ZM273.627 440.148C273.461 439.794 273.252 439.482 273.023 439.17C272.024 437.942 270.546 437.338 268.922 437.338C267.319 437.338 265.862 437.9 264.842 439.17C263.905 440.356 263.593 441.814 263.572 443.271C263.593 444.707 263.905 446.185 264.842 447.351C265.821 448.6 267.319 449.204 268.922 449.204C270.546 449.204 272.045 448.579 273.023 447.351C273.252 447.06 273.44 446.747 273.627 446.435L272.024 445.727C271.92 445.936 271.795 446.144 271.67 446.331C271.046 447.164 270.026 447.58 268.922 447.58C267.861 447.58 266.82 447.164 266.216 446.331C265.571 445.498 265.383 444.374 265.363 443.271C265.383 442.168 265.571 441.043 266.216 440.211C266.82 439.357 267.861 438.941 268.922 438.941C270.026 438.941 271.046 439.357 271.67 440.211C271.795 440.398 271.941 440.606 272.045 440.835L273.627 440.148ZM277.225 440.481C277.308 440.356 277.391 440.232 277.495 440.107C278.078 439.316 279.057 438.962 280.097 438.962C280.951 438.962 281.804 439.149 282.408 439.649C282.949 440.065 283.262 440.69 283.366 441.397L281.034 441.71C279.286 441.98 278.057 442.084 276.829 442.75C275.809 443.375 275.185 444.416 275.185 445.602C275.185 446.394 275.414 446.997 275.851 447.663C276.454 448.538 277.62 449.121 278.744 449.162C279.744 449.225 280.722 448.996 281.638 448.538C282.408 448.163 283.199 447.476 283.616 446.664V448.892H285.114V441.855C285.114 441.21 284.99 440.502 284.677 439.857C283.865 438.108 282.179 437.359 280.118 437.359C278.432 437.359 276.975 437.942 275.996 439.253C275.872 439.399 275.747 439.607 275.663 439.753L277.225 440.481ZM283.428 442.834C283.428 443.771 283.428 444.499 282.991 445.415C282.325 446.893 280.451 447.747 278.973 447.601C277.787 447.497 276.871 446.56 276.892 445.519C276.912 443.875 278.89 443.542 280.701 443.271C281.846 443.084 282.596 442.959 283.428 442.834ZM295.639 437.65V442.064H289.498V437.65H287.812V448.892H289.498V443.75H295.639V448.892H297.325V437.65H295.639ZM304.99 449.204C306.634 449.204 308.092 448.621 309.07 447.372C310.028 446.165 310.361 444.77 310.361 443.25C310.361 441.814 310.048 440.356 309.07 439.17C308.112 437.942 306.593 437.338 304.99 437.338C303.366 437.338 301.846 437.983 300.889 439.17C299.973 440.315 299.619 441.793 299.619 443.25C299.619 444.728 299.952 446.185 300.889 447.372C301.867 448.6 303.366 449.204 304.99 449.204ZM307.738 446.331C307.113 447.164 306.072 447.601 304.99 447.601C303.907 447.601 302.866 447.164 302.263 446.331C301.617 445.498 301.409 444.374 301.409 443.25C301.409 442.168 301.617 441.023 302.263 440.19C302.866 439.357 303.907 438.941 304.99 438.941C306.072 438.941 307.113 439.357 307.738 440.19C308.362 441.023 308.57 442.168 308.57 443.25C308.57 444.374 308.362 445.498 307.738 446.331Z" fill="white"/>
<path d="M45.4443 402.701L34.7707 413.374L29.4339 408.038L27.8413 406.445" stroke="white" stroke-width="3.74712"/>
<path d="M45.4443 437.887L34.7707 448.56L29.4339 443.224L27.8413 441.631" stroke="white" stroke-width="3.74712"/>
<defs>
<filter id="filter0_d" x="2.80821" y="0.964458" width="341.9" height="444.498" filterUnits="userSpaceOnUse" color-interpolation-filters="sRGB">
<feFlood flood-opacity="0" result="BackgroundImageFix"/>
<feColorMatrix in="SourceAlpha" type="matrix" values="0 0 0 0 0 0 0 0 0 0 0 0 0 0 0 0 0 0 127 0"/>
<feOffset/>
<feGaussianBlur stdDeviation="4.92939"/>
<feColorMatrix type="matrix" values="0 0 0 0 0.0506831 0 0 0 0 0 0 0 0 0 0.116667 0 0 0 0.15 0"/>
<feBlend mode="normal" in2="BackgroundImageFix" result="effect1_dropShadow"/>
<feBlend mode="normal" in="SourceGraphic" in2="effect1_dropShadow" result="shape"/>
</filter>
</defs>
</svg>
