<svg width="370" height="468" viewBox="0 0 370 468" fill="none" xmlns="http://www.w3.org/2000/svg">
<g filter="url(#filter0_d)">
<rect x="23.8587" y="10.8232" width="322.182" height="424.78"/>
</g>
<rect x="0.681396" y="388.208" width="368.537" height="79.7094" rx="12.0496" fill="#0669DD"/>
<path d="M230.306 434.813C232.387 434.813 234.448 434.022 235.822 432.356C237.051 430.857 237.529 429.088 237.571 427.006C237.529 425.008 237.092 423.176 235.822 421.635C234.49 420.012 232.471 419.2 230.306 419.2C228.141 419.2 226.101 419.991 224.789 421.635C223.582 423.093 223.04 425.008 223.04 427.006C223.04 429.005 223.582 430.899 224.789 432.356C226.08 433.98 228.162 434.813 230.306 434.813ZM230.306 432.148C229.015 432.169 227.766 431.649 227.037 430.649C226.267 429.65 226.038 428.318 226.017 427.006C226.038 425.695 226.267 424.342 227.037 423.363C227.766 422.364 229.015 421.844 230.306 421.864C231.596 421.844 232.825 422.364 233.574 423.363C234.323 424.342 234.573 425.695 234.573 427.006C234.573 428.318 234.323 429.65 233.574 430.649C232.825 431.649 231.596 432.169 230.306 432.148ZM249.127 423.259H238.927V425.757H242.611V434.5H245.443V425.757H249.127V423.259ZM261.389 423.259H251.105V434.5H253.936V426.09H258.557V434.5H261.389V423.259ZM273.915 424.737C272.958 423.551 271.459 422.947 269.898 422.947C268.753 422.947 267.649 423.322 266.796 423.967V423.259H264.298V439.497H267.15V434.063C267.962 434.563 268.961 434.813 270.043 434.813C271.521 434.813 272.999 434.167 273.915 433.022C274.873 431.857 275.227 430.42 275.227 428.88C275.227 427.319 274.79 425.84 273.915 424.737ZM271.667 431.295C271.188 432.023 270.376 432.294 269.585 432.294C268.774 432.294 268.087 432.044 267.587 431.503C267.046 430.899 266.796 429.9 266.796 428.88C266.796 427.86 267.046 426.881 267.587 426.257C268.045 425.716 268.711 425.466 269.481 425.466C270.418 425.466 271.147 425.736 271.626 426.465C272.021 427.048 272.229 427.922 272.229 428.88C272.229 429.837 272.063 430.712 271.667 431.295ZM279.8 426.569C279.863 426.465 279.946 426.361 280.029 426.278C280.466 425.757 281.07 425.591 281.799 425.591C282.382 425.57 282.944 425.674 283.402 425.945C283.818 426.174 284.13 426.548 284.234 426.985L282.423 427.235C280.82 427.485 279.946 427.506 278.697 428.172C277.635 428.797 276.886 429.983 276.886 431.191C276.886 432.169 277.177 432.731 277.76 433.543C278.364 434.251 279.509 434.792 280.612 434.792C281.466 434.792 282.444 434.584 283.235 434.105C283.735 433.814 284.422 433.189 284.63 432.585V434.5H287.107V427.443C287.107 426.756 286.941 425.924 286.503 425.195C285.587 423.655 283.922 422.968 281.861 422.968C280.008 422.968 278.468 423.571 277.448 425.008C277.365 425.112 277.281 425.258 277.219 425.341L279.8 426.569ZM284.297 429.255C284.297 429.359 284.276 429.775 284.151 430.233C283.797 431.586 282.361 432.169 281.174 432.211C280.258 432.252 279.655 431.669 279.696 431.003C279.738 430.108 281.008 429.879 282.215 429.65L284.297 429.255ZM289.806 423.301V434.5H296.634C297.237 434.5 298.112 434.167 298.632 433.772C299.423 433.147 299.923 432.148 299.923 431.149C299.923 430.649 299.798 430.129 299.569 429.692C299.361 429.255 299.048 428.88 298.674 428.588C298.799 428.443 298.903 428.276 299.007 428.11C299.236 427.652 299.34 427.152 299.34 426.632C299.34 425.549 298.882 424.675 298.049 424.029C297.362 423.488 296.426 423.259 295.447 423.259L289.806 423.301ZM292.678 425.466H295.447C295.863 425.466 296.092 425.57 296.321 425.924C296.467 426.174 296.467 426.403 296.488 426.632C296.509 426.861 296.467 427.11 296.321 427.36C296.113 427.693 295.843 427.818 295.447 427.818H292.678V425.466ZM292.678 429.983H296.051C296.467 429.983 296.696 430.129 296.904 430.441C297.05 430.691 297.071 430.941 297.071 431.149C297.071 431.378 297.05 431.628 296.904 431.878C296.696 432.19 296.405 432.335 296.051 432.335H292.678V429.983ZM312.585 423.259H310.087L305.091 429.796V423.259H302.218V434.5H304.716L309.712 427.735V434.5H312.585V423.259ZM324.772 423.259H314.572V425.757H318.256V434.5H321.088V425.757H324.772V423.259ZM326.75 423.259V434.5H332.058C333.037 434.5 334.098 434.209 334.848 433.48C335.597 432.773 335.972 431.711 335.972 430.691C335.972 429.65 335.597 428.568 334.848 427.86C334.098 427.131 333.037 426.84 332.058 426.84H329.623V423.259H326.75ZM329.623 429.525H331.954C332.287 429.525 332.579 429.671 332.787 429.921C332.974 430.129 333.099 430.399 333.099 430.691C333.099 430.982 332.974 431.274 332.766 431.482C332.558 431.711 332.266 431.836 331.954 431.857H329.623V429.525Z" fill="white"/>
<rect x="13.1921" y="402.271" width="179.694" height="51.5839" rx="12.0496" fill="white"/>
<path d="M73.0171 419.512H60.1103V434.5H62.9415V422.343H70.1859V434.5H73.0171V419.512ZM81.1983 434.813C82.8845 434.813 84.4458 434.188 85.5075 432.939C86.4651 431.753 86.9023 430.483 86.9023 428.88C86.9023 427.36 86.5067 426.007 85.5075 424.82C84.4666 423.571 82.8637 422.947 81.1983 422.947C79.5537 422.947 77.93 423.592 76.8891 424.82C75.994 425.903 75.5152 427.298 75.5152 428.88C75.5152 430.42 75.9315 431.773 76.8891 432.939C77.93 434.167 79.5329 434.813 81.1983 434.813ZM83.2592 431.211C82.8012 431.836 82.031 432.169 81.1983 432.169C80.3656 432.169 79.5954 431.836 79.1374 431.211C78.6586 430.587 78.5129 429.733 78.5129 428.88C78.5129 428.026 78.6586 427.152 79.1374 426.527C79.5954 425.903 80.3656 425.591 81.1983 425.591C82.031 425.591 82.8012 425.903 83.2592 426.527C83.738 427.152 83.9046 428.026 83.9046 428.88C83.9046 429.733 83.738 430.587 83.2592 431.211ZM98.9802 423.259H90.9031L90.3618 427.985C90.0496 430.566 89.321 431.836 88.1552 431.836V435.833H90.8198V434.5H97.2524V435.833H99.917V431.836H98.9802V423.259ZM96.3156 431.836H91.8815C92.4436 431.128 92.7558 429.817 92.9224 428.297L93.2138 425.757H96.3156V431.836ZM112.692 423.259H102.409V434.5H105.24V426.09H109.861V434.5H112.692V423.259ZM125.969 423.259H123.471L118.474 429.796V423.259H115.602V434.5H118.1L123.096 427.735V434.5H125.969V423.259ZM138.864 425.778C138.697 425.445 138.489 425.133 138.239 424.82C137.198 423.592 135.595 422.947 133.93 422.947C132.327 422.947 130.724 423.53 129.642 424.82C128.705 425.965 128.268 427.36 128.268 428.88C128.268 430.399 128.705 431.794 129.642 432.918C130.682 434.167 132.285 434.834 133.93 434.792C135.575 434.834 137.198 434.147 138.239 432.918C138.489 432.627 138.676 432.315 138.864 432.002L136.199 430.857C136.137 430.982 136.074 431.086 135.991 431.211C135.533 431.836 134.763 432.148 133.93 432.148C133.118 432.148 132.348 431.836 131.89 431.211C131.411 430.587 131.265 429.733 131.244 428.88C131.265 428.026 131.411 427.173 131.89 426.548C132.348 425.924 133.118 425.591 133.93 425.591C134.763 425.591 135.533 425.924 135.991 426.548C136.074 426.652 136.157 426.798 136.22 426.923L138.864 425.778ZM143.341 426.569C143.403 426.465 143.486 426.361 143.57 426.278C144.007 425.757 144.611 425.591 145.339 425.591C145.922 425.57 146.484 425.674 146.942 425.945C147.358 426.174 147.671 426.548 147.775 426.985L145.964 427.235C144.361 427.485 143.486 427.506 142.237 428.172C141.176 428.797 140.426 429.983 140.426 431.191C140.426 432.169 140.718 432.731 141.301 433.543C141.904 434.251 143.049 434.792 144.153 434.792C145.006 434.792 145.984 434.584 146.776 434.105C147.275 433.814 147.962 433.189 148.17 432.585V434.5H150.648V427.443C150.648 426.756 150.481 425.924 150.044 425.195C149.128 423.655 147.463 422.968 145.402 422.968C143.549 422.968 142.008 423.571 140.988 425.008C140.905 425.112 140.822 425.258 140.759 425.341L143.341 426.569ZM147.837 429.255C147.837 429.359 147.816 429.775 147.691 430.233C147.338 431.586 145.901 432.169 144.715 432.211C143.799 432.252 143.195 431.669 143.237 431.003C143.278 430.108 144.548 429.879 145.755 429.65L147.837 429.255ZM160.799 423.259V427.277H156.177V423.259H153.346V434.5H156.177V430.108H160.799V434.5H163.63V423.259H160.799ZM171.598 434.813C173.284 434.813 174.845 434.188 175.907 432.939C176.864 431.753 177.302 430.483 177.302 428.88C177.302 427.36 176.906 426.007 175.907 424.82C174.866 423.571 173.263 422.947 171.598 422.947C169.953 422.947 168.329 423.592 167.288 424.82C166.393 425.903 165.914 427.298 165.914 428.88C165.914 430.42 166.331 431.773 167.288 432.939C168.329 434.167 169.932 434.813 171.598 434.813ZM173.659 431.211C173.201 431.836 172.43 432.169 171.598 432.169C170.765 432.169 169.995 431.836 169.537 431.211C169.058 430.587 168.912 429.733 168.912 428.88C168.912 428.026 169.058 427.152 169.537 426.527C169.995 425.903 170.765 425.591 171.598 425.591C172.43 425.591 173.201 425.903 173.659 426.527C174.137 427.152 174.304 428.026 174.304 428.88C174.304 429.733 174.137 430.587 173.659 431.211Z" fill="#0669DD"/>
<path d="M46.391 422.583L35.7174 433.257L30.3806 427.92L28.788 426.327" stroke="#0669DD" stroke-width="3.74712"/>
<defs>
<filter id="filter0_d" x="13.9999" y="0.964458" width="341.9" height="444.498" filterUnits="userSpaceOnUse" color-interpolation-filters="sRGB">
<feFlood flood-opacity="0" result="BackgroundImageFix"/>
<feColorMatrix in="SourceAlpha" type="matrix" values="0 0 0 0 0 0 0 0 0 0 0 0 0 0 0 0 0 0 127 0"/>
<feOffset/>
<feGaussianBlur stdDeviation="4.92939"/>
<feColorMatrix type="matrix" values="0 0 0 0 0.0506831 0 0 0 0 0 0 0 0 0 0.116667 0 0 0 0.15 0"/>
<feBlend mode="normal" in2="BackgroundImageFix" result="effect1_dropShadow"/>
<feBlend mode="normal" in="SourceGraphic" in2="effect1_dropShadow" result="shape"/>
</filter>
</defs>
</svg>
