<svg width="44" height="44" viewBox="0 0 44 44" fill="none" xmlns="http://www.w3.org/2000/svg">
<path d="M10.084 31.7973L22.0007 38.5L29.334 34.375L33.9173 31.7964" stroke="white" stroke-width="3" stroke-linecap="round" stroke-linejoin="round"/>
<path d="M36.6673 27.5V13.75L25.209 7.30493" stroke="white" stroke-width="3" stroke-linecap="round" stroke-linejoin="round"/>
<path d="M18.7923 7.30493L7.33398 13.75V27.5" stroke="white" stroke-width="3" stroke-linecap="round" stroke-linejoin="round"/>
<path d="M19.25 17.1877L16.5 18.7918V25.2085L19.25 26.8127L22 28.4168L24.75 26.8127L27.5 25.2085V18.7918L24.75 17.1877L22 15.5835L19.25 17.1877Z" stroke="white" stroke-width="3" stroke-linecap="round" stroke-linejoin="round"/>
<path d="M22 15.5832V9.1665" stroke="white" stroke-width="3" stroke-linecap="round" stroke-linejoin="round"/>
<path d="M27.5 24.75L33.9167 28.4167" stroke="white" stroke-width="3" stroke-linecap="round" stroke-linejoin="round"/>
<path d="M16.5007 24.75L10.084 28.4167" stroke="white" stroke-width="3" stroke-linecap="round" stroke-linejoin="round"/>
<path d="M22 9.1665C23.5188 9.1665 24.75 7.93529 24.75 6.4165C24.75 4.89772 23.5188 3.6665 22 3.6665C20.4812 3.6665 19.25 4.89772 19.25 6.4165C19.25 7.93529 20.4812 9.1665 22 9.1665Z" stroke="white" stroke-width="3" stroke-linecap="round" stroke-linejoin="round"/>
<path d="M7.33398 33C8.85277 33 10.084 31.7688 10.084 30.25C10.084 28.7312 8.85277 27.5 7.33398 27.5C5.8152 27.5 4.58398 28.7312 4.58398 30.25C4.58398 31.7688 5.8152 33 7.33398 33Z" stroke="white" stroke-width="3" stroke-linecap="round" stroke-linejoin="round"/>
<path d="M36.668 33C38.1868 33 39.418 31.7688 39.418 30.25C39.418 28.7312 38.1868 27.5 36.668 27.5C35.1492 27.5 33.918 28.7312 33.918 30.25C33.918 31.7688 35.1492 33 36.668 33Z" stroke="white" stroke-width="3" stroke-linecap="round" stroke-linejoin="round"/>
</svg>
