<svg width="44" height="44" viewBox="0 0 44 44" fill="none" xmlns="http://www.w3.org/2000/svg">
<path d="M5.5 2.75H2.75V38.5C2.75 39.2293 3.03973 39.9288 3.55546 40.4445C4.07118 40.9603 4.77065 41.25 5.5 41.25H41.25V38.5H5.5V2.75Z" fill="#4FA0FF"/>
<path d="M41.25 12.375H31.625V15.125H36.5613L26.125 25.5613L20.2262 19.6487C20.0984 19.5199 19.9463 19.4176 19.7788 19.3478C19.6112 19.278 19.4315 19.242 19.25 19.242C19.0685 19.242 18.8888 19.278 18.7212 19.3478C18.5537 19.4176 18.4016 19.5199 18.2738 19.6487L8.25 29.6863L10.1887 31.625L19.25 22.5637L25.1488 28.4762C25.2766 28.6051 25.4286 28.7074 25.5962 28.7772C25.7638 28.847 25.9435 28.883 26.125 28.883C26.3065 28.883 26.4862 28.847 26.6538 28.7772C26.8214 28.7074 26.9734 28.6051 27.1012 28.4762L38.5 17.0637V22H41.25V12.375Z" fill="#4FA0FF"/>
</svg>
