<svg width="44" height="44" viewBox="0 0 44 44" fill="none" xmlns="http://www.w3.org/2000/svg">
<path d="M21.9993 23.8333V16.5C21.9993 15.4917 21.1743 14.6667 20.166 14.6667H12.8327V11H21.9993V7.33333H17.416V5.5H13.7493V7.33333H10.9993C9.99102 7.33333 9.16602 8.15833 9.16602 9.16667V16.5C9.16602 17.5083 9.99102 18.3333 10.9993 18.3333H18.3327V22H9.16602V25.6667H13.7493V27.5H17.416V25.6667H20.166C21.1743 25.6667 21.9993 24.8417 21.9993 23.8333ZM35.9144 22.9533L25.5377 33.3117L20.3493 28.1233L17.7643 30.7267L25.5377 38.5L38.4993 25.5383L35.9144 22.9533Z" fill="white"/>
</svg>
