<svg width="178" height="42" viewBox="0 0 178 42" fill="none" xmlns="http://www.w3.org/2000/svg">
<path fill-rule="evenodd" clip-rule="evenodd" d="M37.7043 10.3363V0.890403H32.4247V7.00343C32.1043 6.6397 31.7677 6.28729 31.4153 5.94724C27.9641 2.61692 23.2833 0.745972 18.4027 0.745972C14.763 0.745972 11.205 1.78747 8.17869 3.73878C5.15239 5.69008 2.79368 8.46354 1.40083 11.7084C0.00797357 14.9533 -0.35646 18.5239 0.35361 21.9687C1.06368 25.4134 2.81636 28.5777 5.39002 31.0612C7.47838 33.0764 10.0312 34.57 12.8269 35.4277C12.1076 37.1541 11.4933 38.9281 10.9906 40.7412C10.9804 40.7676 10.9756 40.7956 10.9766 40.8238C10.9776 40.8519 10.9843 40.8795 10.9964 40.9052C11.0085 40.9308 11.0257 40.9539 11.047 40.9731C11.0683 40.9923 11.0933 41.0073 11.1206 41.0171C11.1479 41.027 11.177 41.0316 11.2061 41.0307C11.2353 41.0297 11.2639 41.0232 11.2905 41.0116C11.317 40.9999 11.3409 40.9834 11.3608 40.9628C11.3808 40.9422 11.3963 40.9181 11.4065 40.8917C12.3431 39.1457 13.3882 37.4678 14.5329 35.8654C14.6259 35.8847 14.7191 35.9033 14.8125 35.9212C18.3822 36.6064 22.0824 36.2548 25.445 34.9107C28.1511 33.8291 30.5408 32.1438 32.4247 30.005V36.1179H60.4695V31.0252H37.7043V18.5512C37.9096 18.4788 38.1156 18.4076 38.3222 18.3378C39.3282 18.2096 39.7142 18.9189 40.2481 19.9C41.0262 21.3302 42.1187 23.3378 45.9037 24.1709C48.4281 24.7267 51.0793 24.5401 53.6515 24.2532C54.2753 24.1829 54.9283 24.1007 55.5729 24.0063C59.4364 23.4465 62.5804 23.5127 65.0487 23.605C65.5207 23.6211 65.5685 23.1556 65.2566 22.995C60.0311 20.3263 53.3167 20.6895 51.8799 20.7697H51.464C50.5449 20.7697 49.6341 20.5811 48.9188 20.0253L48.8419 19.9631C48.4806 19.6384 48.2241 19.2201 48.103 18.7583C47.9819 18.2965 48.0015 17.8108 48.1593 17.3595C48.3171 16.9081 48.6065 16.5102 48.9927 16.2136C49.379 15.917 49.8457 15.7342 50.337 15.6871C51.1687 15.6871 51.2997 15.7111 52.5993 16.2469C53.5683 16.6984 54.188 17.0014 54.188 17.0014C56.047 18.0047 56.5356 17.5753 56.5356 17.5753L57.8581 16.6803C59.2721 15.7613 58.8687 15.2075 58.8687 15.2075L58.6379 14.6978C58.064 13.7226 57.9018 12.011 57.9018 12.011C57.8519 10.492 56.1093 9.10548 56.1093 9.10548L55.5853 8.61386C55.1362 8.19649 55.864 7.38583 56.546 7.04873C56.564 7.03903 56.5787 7.02448 56.5883 7.00687C56.5978 6.98925 56.6019 6.96932 56.5999 6.94952C56.5979 6.92972 56.59 6.91091 56.5771 6.89539C56.5642 6.87987 56.5469 6.8683 56.5273 6.86212C55.053 6.42669 52.2645 6.78386 51.1749 6.99656C49.0621 7.0486 46.9619 7.32927 44.9139 7.8333C42.4164 8.4891 40.0084 9.32934 37.7043 10.3363ZM25.6946 7.9732C23.5362 6.5815 20.9986 5.83868 18.4027 5.83868C14.923 5.84292 11.5871 7.17869 9.12664 9.55302C6.66615 11.9273 5.28191 15.1464 5.27751 18.5042C5.27751 21.0092 6.04729 23.458 7.4895 25.5408C8.93171 27.6237 10.9816 29.247 13.3799 30.2057C13.9384 30.4289 14.51 30.6138 15.0905 30.7598C18.7991 24.0979 24.1564 18.3568 30.7093 14.1016C30.6521 13.9526 30.5919 13.8045 30.5287 13.6573C29.5353 11.343 27.853 9.36491 25.6946 7.9732ZM31.1805 21.3985C26.3579 23.9347 22.0275 27.2424 18.3705 31.1697C19.2368 31.1718 20.1053 31.0911 20.9632 30.9264C23.5093 30.4377 25.8479 29.2314 27.6835 27.4601C29.4132 25.791 30.6229 23.6909 31.1805 21.3985Z" fill="white"/>
<path fill-rule="evenodd" clip-rule="evenodd" d="M87.1416 16.8056C88.0947 16.8125 89.0293 16.5525 89.8323 16.0571L90.8221 16.9119L92.0989 15.5494L91.1673 14.7869C91.6911 14.0476 91.9702 13.1723 91.9679 12.2767C91.9679 9.76247 89.9571 7.75588 87.1666 7.75588C84.376 7.75588 82.3403 9.77049 82.3403 12.2847C82.3403 14.799 84.3448 16.8056 87.1416 16.8056ZM88.3516 14.7898L86.8817 13.591L88.1501 12.2165L89.639 13.5148C89.811 13.1285 89.8947 12.711 89.8843 12.2908C89.8843 10.7918 88.7469 9.54375 87.1416 9.54375C85.5363 9.54375 84.4238 10.7678 84.4238 12.2908C84.4238 13.8138 85.5633 15.0398 87.1666 15.0398C87.5754 15.0377 87.9792 14.9525 88.3516 14.7898Z" fill="white"/>
<path d="M93.483 9.95495V14.2872C93.483 15.8242 94.3585 16.7733 95.839 16.7733C96.8309 16.7733 97.4173 16.2616 97.8706 15.6998V16.6589H99.8377V9.95495H97.8706V13.6892C97.8706 14.5881 97.3923 15.0497 96.6416 15.0497C95.891 15.0497 95.4501 14.5881 95.4501 13.6892V9.95495H93.483Z" fill="white"/>
<path fill-rule="evenodd" clip-rule="evenodd" d="M101.182 14.7005C101.182 13.2397 102.334 12.5655 103.977 12.5655C104.555 12.5636 105.129 12.6586 105.673 12.8464V12.726C105.673 11.9395 105.168 11.502 104.184 11.502C103.528 11.503 102.878 11.6264 102.269 11.8652L101.777 10.4165C102.623 10.0411 103.548 9.85718 104.48 9.87869C105.555 9.87869 106.33 10.1536 106.823 10.6292C107.316 11.1047 107.572 11.8652 107.572 12.7642V16.6589H105.671V15.9245C105.408 16.2063 105.083 16.4284 104.72 16.5752C104.358 16.7219 103.966 16.7895 103.573 16.7733C102.259 16.7733 101.182 16.057 101.182 14.7005ZM105.698 14.2872V13.95C105.305 13.7838 104.88 13.699 104.451 13.7012C103.619 13.7012 103.091 14.0263 103.091 14.6503C103.091 15.162 103.532 15.463 104.166 15.463C105.077 15.455 105.698 14.9754 105.698 14.2872Z" fill="white"/>
<path d="M111.225 9.95497H109.258V16.659H111.225V12.9147C111.225 12.0157 111.703 11.5522 112.454 11.5522C113.204 11.5522 113.645 12.0157 113.645 12.9147V16.659H115.612V12.3147C115.612 10.7777 114.745 9.82855 113.256 9.82855C112.264 9.82855 111.676 10.3422 111.225 10.9041V9.95497Z" fill="white"/>
<path d="M117.645 14.7508V11.5784H116.813V9.95507H117.645V8.24345H119.614V9.95507H121.244V11.5784H119.614V14.4378C119.614 14.8752 119.807 15.0879 120.238 15.0879C120.578 15.0905 120.914 15.0097 121.213 14.8531V16.3761C120.743 16.6431 120.205 16.7772 119.66 16.7634C118.458 16.7614 117.645 16.2999 117.645 14.7508Z" fill="white"/>
<path d="M122.639 9.95495V14.2872C122.639 15.8242 123.508 16.7733 124.992 16.7733C125.986 16.7733 126.573 16.2616 127.026 15.6998V16.6589H128.993V9.95495H127.026V13.6892C127.026 14.5881 126.546 15.0497 125.795 15.0497C125.044 15.0497 124.606 14.5881 124.606 13.6892V9.95495H122.639Z" fill="white"/>
<path d="M130.747 9.95478H132.715V10.9039C133.168 10.3421 133.754 9.82837 134.759 9.82837C135.665 9.82837 136.351 10.2156 136.713 10.8919C136.984 10.5565 137.331 10.2859 137.728 10.1015C138.125 9.91697 138.56 9.82351 139.001 9.82837C140.456 9.82837 141.342 10.6792 141.342 12.2904V16.6588H139.375V12.9145C139.375 12.0155 138.959 11.552 138.223 11.552C137.487 11.552 137.031 12.0155 137.031 12.9145V16.6588H135.064V12.9145C135.064 12.0155 134.648 11.552 133.912 11.552C133.176 11.552 132.723 12.0155 132.723 12.9145V16.6588H130.747V9.95478Z" fill="white"/>
<path d="M149.128 7.90596H147.136V16.6587H153.646V14.8989H149.128V7.90596Z" fill="white"/>
<path fill-rule="evenodd" clip-rule="evenodd" d="M154.473 13.314C154.473 11.4037 155.883 9.82855 157.902 9.82855C160.219 9.82855 161.279 11.5663 161.279 13.4645C161.279 13.6109 161.267 13.7826 161.255 13.9566L161.254 13.9641H156.426C156.621 14.8249 157.241 15.2744 158.123 15.2744C158.782 15.2744 159.26 15.0738 159.805 14.5882L160.93 15.5493C160.591 15.9563 160.158 16.2812 159.666 16.4979C159.174 16.7147 158.636 16.8172 158.096 16.7974C156.012 16.7974 154.473 15.3868 154.473 13.314ZM159.364 12.7762C159.248 11.9274 158.74 11.3536 157.909 11.3536C157.077 11.3536 156.563 11.9154 156.407 12.7762H159.364Z" fill="white"/>
<path fill-rule="evenodd" clip-rule="evenodd" d="M165.123 12.5659C163.478 12.5659 162.326 13.2401 162.326 14.7009C162.326 16.0573 163.401 16.7737 164.707 16.7737C165.1 16.7899 165.492 16.7222 165.855 16.5755C166.217 16.4288 166.542 16.2066 166.805 15.9249V16.6593H168.708V12.7645C168.708 11.8656 168.45 11.1051 167.957 10.6295C167.465 10.154 166.689 9.87905 165.614 9.87905C164.686 9.85881 163.766 10.0427 162.923 10.4168L163.414 11.8656C164.022 11.6267 164.672 11.5034 165.329 11.5024C166.313 11.5024 166.818 11.9398 166.818 12.7264V12.8468C166.274 12.659 165.701 12.5639 165.123 12.5659ZM166.843 13.9504V14.2875C166.843 14.9758 166.223 15.4553 165.31 15.4634C164.676 15.4634 164.235 15.1624 164.235 14.6507C164.235 14.0267 164.753 13.7016 165.595 13.7016C166.025 13.6992 166.45 13.784 166.843 13.9504Z" fill="white"/>
<path fill-rule="evenodd" clip-rule="evenodd" d="M170.406 9.95488H172.373V10.916C172.611 10.5766 172.934 10.3001 173.311 10.1115C173.688 9.92298 174.108 9.82844 174.533 9.83649C176.151 9.83649 177.692 11.0605 177.692 13.3219C177.692 15.5833 176.178 16.7813 174.533 16.7813C174.117 16.7889 173.704 16.7022 173.329 16.5279C172.954 16.3536 172.626 16.0968 172.373 15.778V18.6474H170.406V9.95488ZM175.725 13.2898C175.725 12.1782 174.947 11.4398 174.03 11.4398C173.113 11.4398 172.346 12.1782 172.346 13.3139C172.346 14.4496 173.111 15.162 174.03 15.162C174.949 15.162 175.725 14.4376 175.725 13.2898Z" fill="white"/>
<path d="M83.2979 30.3015L82.1209 31.664C83.1793 32.5674 84.5443 33.0651 85.9574 33.0626C87.912 33.0626 89.2844 32.0874 89.2844 30.3517C89.2844 28.8026 88.2489 28.1665 86.4107 27.703C84.8449 27.3177 84.4561 27.1291 84.4561 26.5552C84.4561 26.1057 84.8595 25.7686 85.6226 25.7686C86.3858 25.7686 87.1759 26.0937 87.9765 26.6295L89.0162 25.1807C88.0633 24.443 86.8732 24.0498 85.6517 24.0691C83.8011 24.0691 82.4807 25.1185 82.4807 26.7057C82.4807 28.4655 83.6597 28.9531 85.4833 29.4026C86.9971 29.7778 87.309 30.0266 87.309 30.5142C87.309 31.052 86.8162 31.363 86.0011 31.363C84.9614 31.363 84.113 30.9516 83.2979 30.3015Z" fill="white"/>
<path d="M91.0761 31.0382V27.8658H90.2444V26.2424H91.0761V24.5328H93.0432V26.2424H94.6735V27.8658H93.0432V30.7271C93.0432 31.1646 93.2366 31.3753 93.6775 31.3753C94.0167 31.3773 94.3509 31.2958 94.6485 31.1385V32.6615C94.1789 32.9292 93.6405 33.0635 93.0952 33.0488C91.8913 33.0488 91.0761 32.5872 91.0761 31.0382Z" fill="white"/>
<path d="M98.1008 26.2422H96.1233L96.1337 32.9281H98.1008V30.456C98.1008 28.8567 98.9034 28.0962 100.209 28.0962H100.313V26.1178C99.1405 26.0676 98.5021 26.6676 98.1008 27.5906V26.2422Z" fill="white"/>
<path fill-rule="evenodd" clip-rule="evenodd" d="M100.803 30.9883C100.803 29.5275 101.955 28.8533 103.598 28.8533C104.175 28.8482 104.749 28.9412 105.293 29.1282V29.0158C105.293 28.2292 104.789 27.7918 103.806 27.7918C103.149 27.7928 102.498 27.9161 101.889 28.155L101.398 26.7062C102.242 26.332 103.162 26.148 104.091 26.1685C105.164 26.1685 105.941 26.4434 106.432 26.9169C106.923 27.3905 107.183 28.155 107.183 29.0539V32.9367H105.28V32.2123C105.018 32.4947 104.693 32.7174 104.331 32.8645C103.969 33.0117 103.577 33.0794 103.184 33.0631C101.868 33.0631 100.803 32.3387 100.803 30.9883ZM105.32 30.5869V30.2498C104.927 30.0823 104.502 29.9968 104.072 29.999C103.24 29.999 102.714 30.3241 102.714 30.9501C102.714 31.4618 103.153 31.7528 103.787 31.7528C104.69 31.7508 105.311 31.2632 105.311 30.5769L105.32 30.5869Z" fill="white"/>
<path d="M109.121 27.8658V31.0382C109.121 32.5872 109.953 33.0488 111.138 33.0488C111.683 33.0639 112.221 32.9296 112.69 32.6615V31.1385C112.393 31.2959 112.059 31.3775 111.721 31.3753C111.29 31.3753 111.097 31.1646 111.097 30.7271V27.8658H112.719V26.2424H111.089V24.5328H109.121V26.2424H108.29V27.8658H109.121Z" fill="white"/>
<path fill-rule="evenodd" clip-rule="evenodd" d="M113.646 29.6034C113.646 27.6911 115.056 26.1179 117.075 26.1179C119.391 26.1179 120.454 27.8536 120.454 29.7518C120.454 29.8813 120.443 30.0285 120.432 30.1783L120.427 30.2515H115.6C115.794 31.1143 116.415 31.5638 117.295 31.5638C117.954 31.5638 118.435 31.3631 118.977 30.8755L120.102 31.8387C119.763 32.2457 119.331 32.5706 118.839 32.7873C118.346 33.004 117.809 33.1066 117.268 33.0868C115.184 33.0868 113.646 31.6762 113.646 29.6034ZM118.536 29.0656C118.42 28.2168 117.913 27.6409 117.081 27.6409C116.249 27.6409 115.735 28.2028 115.58 29.0656H118.536Z" fill="white"/>
<path fill-rule="evenodd" clip-rule="evenodd" d="M122.626 32.8382L121.952 34.2608C122.9 34.7339 123.952 34.9776 125.019 34.9712C126.367 34.9712 127.363 34.6963 128.009 34.0722C128.592 33.5084 128.889 32.6395 128.889 31.4356V26.2526H126.922V27.1274C126.652 26.8066 126.311 26.5495 125.922 26.3756C125.534 26.2018 125.11 26.1157 124.682 26.1241C123.092 26.1241 121.603 27.2358 121.603 29.2464C121.603 31.257 123.064 32.3947 124.682 32.3947C125.732 32.3947 126.367 31.9813 126.949 31.3071V31.6262C126.949 32.8241 126.315 33.4502 124.967 33.4502C124.143 33.4559 123.334 33.2443 122.626 32.8382ZM125.246 27.6953C126.204 27.6953 126.943 28.3334 126.943 29.2444L126.949 29.2404C126.949 30.1774 126.202 30.8175 125.246 30.8175C124.289 30.8175 123.564 30.2035 123.564 29.2684C123.564 28.3334 124.287 27.6953 125.246 27.6953Z" fill="white"/>
<path d="M130.56 34.5175L131.22 33.143C131.473 33.2974 131.763 33.3878 132.062 33.4058C132.211 33.4191 132.36 33.383 132.485 33.3035C132.609 33.224 132.702 33.1058 132.748 32.9684L130.03 26.2483H132.11L133.688 30.8073L135.202 26.2483H137.248L134.58 33.1048C134.05 34.4673 133.48 34.979 132.293 34.979C131.682 34.985 131.082 34.825 130.56 34.5175Z" fill="white"/>
</svg>
