<svg width="25" height="24" viewBox="0 0 25 24" fill="none" xmlns="http://www.w3.org/2000/svg">
<path d="M5.03875 7.264C5.051 7.14227 5.03459 7.01935 4.99083 6.9051C4.94707 6.79084 4.87718 6.68841 4.78675 6.606L2.91875 4.339V4H8.71675L13.1987 13.905L17.1387 4H22.6667V4.339L21.0697 5.88C21.0021 5.93225 20.9499 6.00189 20.9187 6.0815C20.8875 6.16111 20.8785 6.24769 20.8927 6.332V17.666C20.8785 17.7503 20.8875 17.8369 20.9187 17.9165C20.9499 17.9961 21.0021 18.0658 21.0697 18.118L22.6297 19.66V20H14.7857V19.661L16.4017 18.081C16.5607 17.921 16.5607 17.874 16.5607 17.63V8.468L12.0687 19.962H11.4627L6.23275 8.468V16.172C6.18975 16.495 6.29675 16.822 6.52275 17.056L8.62375 19.624V19.962H2.66675V19.624L4.76675 17.056C4.87786 16.9401 4.96032 16.7997 5.00755 16.6462C5.05478 16.4928 5.06546 16.3304 5.03875 16.172V7.264Z" fill="white"/>
</svg>
