<svg width="24" height="24" viewBox="0 0 24 24" fill="none" xmlns="http://www.w3.org/2000/svg">
<g clip-path="url(#clip0_2812_464)">
<path fill-rule="evenodd" clip-rule="evenodd" d="M17.4152 14.382C17.1172 14.233 15.6562 13.515 15.3842 13.415C15.1122 13.316 14.9142 13.267 14.7152 13.565C14.5172 13.861 13.9482 14.531 13.7752 14.729C13.6012 14.928 13.4282 14.952 13.1312 14.804C12.8342 14.654 11.8762 14.341 10.7412 13.329C9.85824 12.541 9.26124 11.568 9.08824 11.27C8.91524 10.973 9.06924 10.812 9.21824 10.664C9.35224 10.531 9.51524 10.317 9.66424 10.144C9.81324 9.97004 9.86224 9.84604 9.96124 9.64704C10.0612 9.44904 10.0112 9.27604 9.93624 9.12704C9.86224 8.97804 9.26824 7.51504 9.02024 6.92004C8.77924 6.34104 8.53424 6.42004 8.35224 6.41004C8.17824 6.40204 7.98024 6.40004 7.78224 6.40004C7.58424 6.40004 7.26224 6.47404 6.99024 6.77204C6.71724 7.06904 5.95024 7.78804 5.95024 9.25104C5.95024 10.713 7.01424 12.126 7.16324 12.325C7.31224 12.523 9.25824 15.525 12.2392 16.812C12.9492 17.118 13.5022 17.301 13.9332 17.437C14.6452 17.664 15.2932 17.632 15.8052 17.555C16.3752 17.47 17.5632 16.836 17.8112 16.142C18.0582 15.448 18.0582 14.853 17.9842 14.729C17.9102 14.605 17.7122 14.531 17.4142 14.382H17.4152ZM11.9932 21.785H11.9892C10.2187 21.7854 8.48062 21.3094 6.95724 20.407L6.59724 20.193L2.85524 21.175L3.85424 17.527L3.61924 17.153C2.62938 15.5774 2.10554 13.7538 2.10824 11.893C2.11024 6.44304 6.54424 2.00904 11.9972 2.00904C14.6372 2.00904 17.1192 3.03904 18.9852 4.90704C19.9056 5.82362 20.6351 6.91361 21.1315 8.11394C21.6279 9.31427 21.8814 10.6011 21.8772 11.9C21.8752 17.35 17.4412 21.785 11.9932 21.785ZM20.4052 3.48804C19.3034 2.37896 17.9925 1.49958 16.5483 0.900841C15.1042 0.302105 13.5556 -0.00407625 11.9922 4.09775e-05C5.43824 4.09775e-05 0.102244 5.33504 0.100244 11.892C0.0972072 13.9788 0.644619 16.0294 1.68724 17.837L0.000244141 24L6.30424 22.346C8.04812 23.2962 10.0023 23.794 11.9882 23.794H11.9932C18.5472 23.794 23.8832 18.459 23.8852 11.901C23.8901 10.3383 23.585 8.79014 22.9877 7.34607C22.3903 5.90201 21.5126 4.59071 20.4052 3.48804Z" fill="white"/>
</g>
<defs>
<clipPath id="clip0_2812_464">
<rect width="24" height="24" fill="white" transform="translate(0.000244141)"/>
</clipPath>
</defs>
</svg>
