<svg width="25" height="24" viewBox="0 0 25 24" fill="none" xmlns="http://www.w3.org/2000/svg">
<g clip-path="url(#clip0_2812_462)">
<path fill-rule="evenodd" clip-rule="evenodd" d="M24.6669 12C24.6669 18.627 19.2939 24 12.6669 24C6.03987 24 0.66687 18.627 0.66687 12C0.66687 5.373 6.03987 0 12.6669 0C19.2939 0 24.6669 5.373 24.6669 12ZM13.0969 8.859C11.9299 9.344 9.59687 10.349 6.09887 11.873C5.53087 12.099 5.23287 12.32 5.20587 12.536C5.15987 12.902 5.61787 13.046 6.23987 13.241C6.32487 13.268 6.41287 13.295 6.50287 13.325C7.11587 13.524 7.93987 13.757 8.36787 13.766C8.75687 13.774 9.19087 13.614 9.66987 13.286C12.9379 11.079 14.6249 9.964 14.7309 9.94C14.8059 9.923 14.9099 9.901 14.9799 9.964C15.0499 10.026 15.0429 10.144 15.0359 10.176C14.9899 10.369 13.1959 12.038 12.2659 12.902C11.9759 13.171 11.7709 13.362 11.7289 13.406C11.6349 13.503 11.5389 13.596 11.4469 13.685C10.8769 14.233 10.4509 14.645 11.4709 15.317C11.9609 15.64 12.3529 15.907 12.7439 16.173C13.1709 16.464 13.5969 16.754 14.1489 17.116C14.2889 17.208 14.4229 17.303 14.5539 17.396C15.0509 17.751 15.4979 18.069 16.0499 18.019C16.3699 17.989 16.7019 17.688 16.8699 16.789C17.2669 14.663 18.0489 10.059 18.2299 8.161C18.2409 8.00341 18.2342 7.84509 18.2099 7.689C18.1953 7.56293 18.1339 7.44693 18.0379 7.364C17.8949 7.247 17.6729 7.222 17.5729 7.224C17.1219 7.232 16.4299 7.473 13.0969 8.859Z" fill="white"/>
</g>
<defs>
<clipPath id="clip0_2812_462">
<rect width="24" height="24" fill="white" transform="translate(0.66687)"/>
</clipPath>
</defs>
</svg>
