<svg width="25" height="24" viewBox="0 0 25 24" fill="none" xmlns="http://www.w3.org/2000/svg">
<path fill-rule="evenodd" clip-rule="evenodd" d="M7.7985 1.066C8.9715 1.012 9.3455 1 12.3335 1C15.3215 1 15.6955 1.013 16.8675 1.066C18.0395 1.119 18.8395 1.306 19.5395 1.577C20.2725 1.854 20.9375 2.287 21.4875 2.847C22.0475 3.396 22.4795 4.06 22.7555 4.794C23.0275 5.494 23.2135 6.294 23.2675 7.464C23.3215 8.639 23.3335 9.013 23.3335 12C23.3335 14.988 23.3205 15.362 23.2675 16.535C23.2145 17.705 23.0275 18.505 22.7555 19.205C22.4795 19.9391 22.0468 20.6042 21.4875 21.154C20.9375 21.714 20.2725 22.146 19.5395 22.422C18.8395 22.694 18.0395 22.88 16.8695 22.934C15.6955 22.988 15.3215 23 12.3335 23C9.3455 23 8.9715 22.987 7.7985 22.934C6.6285 22.881 5.8285 22.694 5.1285 22.422C4.39442 22.146 3.72932 21.7133 3.1795 21.154C2.61988 20.6047 2.18681 19.9399 1.9105 19.206C1.6395 18.506 1.4535 17.706 1.3995 16.536C1.3455 15.361 1.3335 14.987 1.3335 12C1.3335 9.012 1.3465 8.638 1.3995 7.466C1.4525 6.294 1.6395 5.494 1.9105 4.794C2.18722 4.06008 2.62061 3.39531 3.1805 2.846C3.72954 2.2865 4.39397 1.85344 5.1275 1.577C5.8275 1.306 6.6275 1.12 7.7975 1.066H7.7985ZM16.7785 3.046C15.6185 2.993 15.2705 2.982 12.3335 2.982C9.3965 2.982 9.0485 2.993 7.8885 3.046C6.8155 3.095 6.2335 3.274 5.8455 3.425C5.3325 3.625 4.9655 3.862 4.5805 4.247C4.21554 4.60205 3.93468 5.03428 3.7585 5.512C3.6075 5.9 3.4285 6.482 3.3795 7.555C3.3265 8.715 3.3155 9.063 3.3155 12C3.3155 14.937 3.3265 15.285 3.3795 16.445C3.4285 17.518 3.6075 18.1 3.7585 18.488C3.9345 18.965 4.2155 19.398 4.5805 19.753C4.9355 20.118 5.3685 20.399 5.8455 20.575C6.2335 20.726 6.8155 20.905 7.8885 20.954C9.0485 21.007 9.3955 21.018 12.3335 21.018C15.2715 21.018 15.6185 21.007 16.7785 20.954C17.8515 20.905 18.4335 20.726 18.8215 20.575C19.3345 20.375 19.7015 20.138 20.0865 19.753C20.4515 19.398 20.7325 18.965 20.9085 18.488C21.0595 18.1 21.2385 17.518 21.2875 16.445C21.3405 15.285 21.3515 14.937 21.3515 12C21.3515 9.063 21.3405 8.715 21.2875 7.555C21.2385 6.482 21.0595 5.9 20.9085 5.512C20.7085 4.999 20.4715 4.632 20.0865 4.247C19.7314 3.88207 19.2992 3.60121 18.8215 3.425C18.4335 3.274 17.8515 3.095 16.7785 3.046ZM10.9285 15.391C11.7132 15.7176 12.5869 15.7617 13.4004 15.5157C14.214 15.2697 14.9169 14.7489 15.3891 14.0422C15.8613 13.3356 16.0736 12.4869 15.9895 11.6411C15.9055 10.7953 15.5305 10.005 14.9285 9.405C14.5447 9.02148 14.0807 8.72781 13.5698 8.54515C13.0589 8.36248 12.5139 8.29536 11.974 8.34862C11.4341 8.40187 10.9126 8.57418 10.4473 8.85313C9.98195 9.13208 9.58424 9.51074 9.2828 9.96185C8.98136 10.413 8.78368 10.9253 8.70401 11.462C8.62434 11.9986 8.66465 12.5463 8.82204 13.0655C8.97942 13.5847 9.24998 14.0626 9.61422 14.4647C9.97846 14.8668 10.4273 15.1832 10.9285 15.391ZM8.3355 8.002C8.86052 7.47697 9.48382 7.0605 10.1698 6.77636C10.8558 6.49222 11.591 6.34597 12.3335 6.34597C13.076 6.34597 13.8112 6.49222 14.4972 6.77636C15.1832 7.0605 15.8065 7.47697 16.3315 8.002C16.8565 8.52702 17.273 9.15032 17.5571 9.8363C17.8413 10.5223 17.9875 11.2575 17.9875 12C17.9875 12.7425 17.8413 13.4777 17.5571 14.1637C17.273 14.8497 16.8565 15.473 16.3315 15.998C15.2712 17.0583 13.833 17.654 12.3335 17.654C10.834 17.654 9.39583 17.0583 8.3355 15.998C7.27516 14.9377 6.67947 13.4995 6.67947 12C6.67947 10.5005 7.27516 9.06234 8.3355 8.002ZM19.2415 7.188C19.3716 7.06527 19.4758 6.91768 19.5478 6.75397C19.6198 6.59027 19.6583 6.41377 19.6609 6.23493C19.6635 6.05609 19.6302 5.87855 19.563 5.71281C19.4957 5.54707 19.3959 5.39651 19.2695 5.27004C19.143 5.14357 18.9924 5.04376 18.8267 4.97652C18.6609 4.90928 18.4834 4.87598 18.3046 4.87858C18.1257 4.88119 17.9492 4.91965 17.7855 4.9917C17.6218 5.06374 17.4742 5.1679 17.3515 5.298C17.1128 5.55103 16.9821 5.88712 16.9872 6.23493C16.9923 6.58274 17.1327 6.91488 17.3787 7.16084C17.6246 7.40681 17.9568 7.54723 18.3046 7.5523C18.6524 7.55737 18.9885 7.42669 19.2415 7.188Z" fill="white"/>
</svg>
