<svg width="25" height="24" viewBox="0 0 25 24" fill="none" xmlns="http://www.w3.org/2000/svg">
<path d="M20.9584 2.625H3.70837C3.29353 2.625 2.95837 2.96016 2.95837 3.375V20.625C2.95837 21.0398 3.29353 21.375 3.70837 21.375H20.9584C21.3732 21.375 21.7084 21.0398 21.7084 20.625V3.375C21.7084 2.96016 21.3732 2.625 20.9584 2.625ZM18.7927 8.09766H17.2951C16.1209 8.09766 15.8935 8.65547 15.8935 9.47578V11.2828H18.6967L18.331 14.1117H15.8935V21.375H12.9709V14.1141H10.5263V11.2828H12.9709V9.19687C12.9709 6.77578 14.4498 5.45625 16.6107 5.45625C17.6467 5.45625 18.5349 5.53359 18.7951 5.56875V8.09766H18.7927Z" fill="white"/>
</svg>
