<svg width="43" height="48" viewBox="0 0 43 48" fill="none" xmlns="http://www.w3.org/2000/svg">
<path d="M11.7578 35.25H15.1172C15.302 35.25 15.4531 35.0812 15.4531 34.875V13.125C15.4531 12.9187 15.302 12.75 15.1172 12.75H11.7578C11.573 12.75 11.4219 12.9187 11.4219 13.125V34.875C11.4219 35.0812 11.573 35.25 11.7578 35.25ZM19.8203 22.125H23.1797C23.3645 22.125 23.5156 21.9562 23.5156 21.75V13.125C23.5156 12.9187 23.3645 12.75 23.1797 12.75H19.8203C19.6355 12.75 19.4844 12.9187 19.4844 13.125V21.75C19.4844 21.9562 19.6355 22.125 19.8203 22.125ZM27.8828 25.5H31.2422C31.427 25.5 31.5781 25.3312 31.5781 25.125V13.125C31.5781 12.9187 31.427 12.75 31.2422 12.75H27.8828C27.698 12.75 27.5469 12.9187 27.5469 13.125V25.125C27.5469 25.3312 27.698 25.5 27.8828 25.5ZM36.9531 5.25H6.04688C5.30361 5.25 4.70312 5.92031 4.70312 6.75V41.25C4.70312 42.0797 5.30361 42.75 6.04688 42.75H36.9531C37.6964 42.75 38.2969 42.0797 38.2969 41.25V6.75C38.2969 5.92031 37.6964 5.25 36.9531 5.25ZM35.2734 39.375H7.72656V8.625H35.2734V39.375Z" fill="#D0000F"/>
</svg>
