<svg width="43" height="43" viewBox="0 0 43 43" fill="none" xmlns="http://www.w3.org/2000/svg">
<path d="M21.5 3.58337C11.6208 3.58337 3.58337 11.6208 3.58337 21.5C3.58337 31.3793 11.6208 39.4167 21.5 39.4167C31.3793 39.4167 39.4167 31.3793 39.4167 21.5C39.4167 11.6208 31.3793 3.58337 21.5 3.58337ZM7.16671 21.5C7.16671 19.8893 7.44621 18.3431 7.93892 16.8972L10.75 19.7084L14.3334 23.2917V26.875L17.9167 30.4584L19.7084 32.25V35.7098C12.651 34.8229 7.16671 28.7957 7.16671 21.5ZM32.8413 30.2308C31.6713 29.2884 29.8976 28.6667 28.6667 28.6667V26.875C28.6667 25.9247 28.2892 25.0132 27.6172 24.3412C26.9452 23.6692 26.0337 23.2917 25.0834 23.2917H17.9167V17.9167C18.8671 17.9167 19.7785 17.5392 20.4505 16.8672C21.1225 16.1952 21.5 15.2837 21.5 14.3334V12.5417H23.2917C24.2421 12.5417 25.1535 12.1642 25.8255 11.4922C26.4975 10.8202 26.875 9.90873 26.875 8.95837V8.222C32.121 10.3523 35.8334 15.498 35.8334 21.5C35.833 24.6618 34.7804 27.7335 32.8413 30.2308Z" fill="#D0000F"/>
</svg>
