<svg width="44" height="44" viewBox="0 0 44 44" fill="none" xmlns="http://www.w3.org/2000/svg">
<path d="M28.875 31.625C30.3938 31.625 31.625 30.3938 31.625 28.875C31.625 27.3562 30.3938 26.125 28.875 26.125C27.3562 26.125 26.125 27.3562 26.125 28.875C26.125 30.3938 27.3562 31.625 28.875 31.625Z" fill="white"/>
<path d="M9.625 12.375C11.1438 12.375 12.375 11.1438 12.375 9.625C12.375 8.10622 11.1438 6.875 9.625 6.875C8.10622 6.875 6.875 8.10622 6.875 9.625C6.875 11.1438 8.10622 12.375 9.625 12.375Z" fill="white"/>
<path d="M37.125 42.625C36.0372 42.625 34.9738 42.3024 34.0694 41.6981C33.1649 41.0937 32.4599 40.2348 32.0437 39.2298C31.6274 38.2248 31.5185 37.1189 31.7307 36.052C31.9429 34.9851 32.4667 34.0051 33.2359 33.2359C34.0051 32.4667 34.9851 31.9429 36.052 31.7307C37.1189 31.5185 38.2248 31.6274 39.2298 32.0437C40.2348 32.4599 41.0937 33.1649 41.6981 34.0694C42.3024 34.9738 42.625 36.0372 42.625 37.125C42.6206 38.5824 42.0398 39.9788 41.0093 41.0093C39.9788 42.0398 38.5824 42.6206 37.125 42.625ZM37.125 34.375C36.5811 34.375 36.0494 34.5363 35.5972 34.8385C35.1449 35.1406 34.7925 35.5701 34.5843 36.0726C34.3762 36.5751 34.3217 37.1281 34.4278 37.6615C34.534 38.1949 34.7959 38.685 35.1805 39.0695C35.5651 39.4541 36.0551 39.7161 36.5885 39.8222C37.122 39.9283 37.6749 39.8738 38.1774 39.6657C38.6799 39.4575 39.1094 39.1051 39.4115 38.6528C39.7137 38.2006 39.875 37.6689 39.875 37.125C39.8728 36.3963 39.5824 35.6981 39.0671 35.1829C38.5519 34.6676 37.8537 34.3772 37.125 34.375Z" fill="white"/>
<path d="M41.25 22.0001C41.2351 16.8993 39.2022 12.0116 35.5954 8.40474C31.9885 4.79788 27.1008 2.76499 22 2.75012C18.7155 2.70327 15.4812 3.5594 12.65 5.22512L14.1625 7.56262C15.2373 7.04602 16.3389 6.58704 17.4625 6.18762C15.1895 10.6727 13.9225 15.5999 13.75 20.6251H5.5C5.65407 18.3548 6.31164 16.1472 7.425 14.1626L5.3625 12.3751C3.65161 15.2942 2.74982 18.6166 2.75 22.0001C2.74964 24.5282 3.24731 27.0315 4.21458 29.3672C5.18186 31.7029 6.59979 33.8251 8.38739 35.6127C10.175 37.4003 12.2972 38.8183 14.6329 39.7855C16.9686 40.7528 19.472 41.2505 22 41.2501C24.4512 41.2732 26.8822 40.8057 29.15 39.8751L28.325 37.2626C26.0707 38.2266 23.6222 38.6504 21.175 38.5001C18.2428 33.9902 16.624 28.753 16.5 23.3751H41.1125C41.2261 22.9261 41.2725 22.4627 41.25 22.0001ZM17.6 37.9501C14.8658 37.1306 12.3671 35.6691 10.3125 33.6876C7.5843 30.896 5.88713 27.2592 5.5 23.3751H13.75C13.9392 28.4585 15.2541 33.4365 17.6 37.9501ZM16.5 20.6251C16.6094 15.2647 18.1781 10.0355 21.0375 5.50012H22.9625C25.8219 10.0355 27.3906 15.2647 27.5 20.6251H16.5ZM30.25 20.6251C30.1454 15.5295 28.8254 10.5326 26.4 6.05012C29.6352 6.98261 32.5111 8.87534 34.6471 11.4779C36.7832 14.0804 38.0788 17.2702 38.3625 20.6251H30.25Z" fill="white"/>
</svg>
