<svg width="48" height="48" viewBox="0 0 48 48" fill="none" xmlns="http://www.w3.org/2000/svg">
<path d="M43.5 6.5625H4.5C3.67031 6.5625 3 7.23281 3 8.0625V31.3125C3 32.1422 3.67031 32.8125 4.5 32.8125H22.3125V38.0625H14.25C13.8375 38.0625 13.5 38.4 13.5 38.8125V41.0625C13.5 41.2688 13.6687 41.4375 13.875 41.4375H34.125C34.3313 41.4375 34.5 41.2688 34.5 41.0625V38.8125C34.5 38.4 34.1625 38.0625 33.75 38.0625H25.6875V32.8125H43.5C44.3297 32.8125 45 32.1422 45 31.3125V8.0625C45 7.23281 44.3297 6.5625 43.5 6.5625ZM41.625 29.4375H6.375V9.9375H41.625V29.4375Z" fill="#4FA0FF"/>
</svg>
