<svg width="52" height="52" viewBox="0 0 52 52" fill="none" xmlns="http://www.w3.org/2000/svg">
<path d="M44.2812 24.1719H27.8281V7.3125H24.1719V24.1719H7.71875C7.49531 24.1719 7.3125 24.3547 7.3125 24.5781V27.4219C7.3125 27.6453 7.49531 27.8281 7.71875 27.8281H24.1719V44.6875H27.8281V27.8281H44.2812C44.5047 27.8281 44.6875 27.6453 44.6875 27.4219V24.5781C44.6875 24.3547 44.5047 24.1719 44.2812 24.1719ZM44.2812 15.7422H41.4375C41.2141 15.7422 41.0312 15.925 41.0312 16.1484V18.9922C41.0312 19.2156 41.2141 19.3984 41.4375 19.3984H44.2812C44.5047 19.3984 44.6875 19.2156 44.6875 18.9922V16.1484C44.6875 15.925 44.5047 15.7422 44.2812 15.7422ZM44.2812 41.0312H41.4375C41.2141 41.0312 41.0312 41.2141 41.0312 41.4375V44.2812C41.0312 44.5047 41.2141 44.6875 41.4375 44.6875H44.2812C44.5047 44.6875 44.6875 44.5047 44.6875 44.2812V41.4375C44.6875 41.2141 44.5047 41.0312 44.2812 41.0312ZM44.2812 7.3125H41.4375C41.2141 7.3125 41.0312 7.49531 41.0312 7.71875V10.5625C41.0312 10.7859 41.2141 10.9688 41.4375 10.9688H44.2812C44.5047 10.9688 44.6875 10.7859 44.6875 10.5625V7.71875C44.6875 7.49531 44.5047 7.3125 44.2812 7.3125ZM44.2812 32.6016H41.4375C41.2141 32.6016 41.0312 32.7844 41.0312 33.0078V35.8516C41.0312 36.075 41.2141 36.2578 41.4375 36.2578H44.2812C44.5047 36.2578 44.6875 36.075 44.6875 35.8516V33.0078C44.6875 32.7844 44.5047 32.6016 44.2812 32.6016ZM33.0078 10.9688H35.8516C36.075 10.9688 36.2578 10.7859 36.2578 10.5625V7.71875C36.2578 7.49531 36.075 7.3125 35.8516 7.3125H33.0078C32.7844 7.3125 32.6016 7.49531 32.6016 7.71875V10.5625C32.6016 10.7859 32.7844 10.9688 33.0078 10.9688ZM35.8516 41.0312H33.0078C32.7844 41.0312 32.6016 41.2141 32.6016 41.4375V44.2812C32.6016 44.5047 32.7844 44.6875 33.0078 44.6875H35.8516C36.075 44.6875 36.2578 44.5047 36.2578 44.2812V41.4375C36.2578 41.2141 36.075 41.0312 35.8516 41.0312ZM18.9922 41.0312H16.1484C15.925 41.0312 15.7422 41.2141 15.7422 41.4375V44.2812C15.7422 44.5047 15.925 44.6875 16.1484 44.6875H18.9922C19.2156 44.6875 19.3984 44.5047 19.3984 44.2812V41.4375C19.3984 41.2141 19.2156 41.0312 18.9922 41.0312ZM16.1484 10.9688H18.9922C19.2156 10.9688 19.3984 10.7859 19.3984 10.5625V7.71875C19.3984 7.49531 19.2156 7.3125 18.9922 7.3125H16.1484C15.925 7.3125 15.7422 7.49531 15.7422 7.71875V10.5625C15.7422 10.7859 15.925 10.9688 16.1484 10.9688ZM7.71875 10.9688H10.5625C10.7859 10.9688 10.9688 10.7859 10.9688 10.5625V7.71875C10.9688 7.49531 10.7859 7.3125 10.5625 7.3125H7.71875C7.49531 7.3125 7.3125 7.49531 7.3125 7.71875V10.5625C7.3125 10.7859 7.49531 10.9688 7.71875 10.9688ZM10.5625 41.0312H7.71875C7.49531 41.0312 7.3125 41.2141 7.3125 41.4375V44.2812C7.3125 44.5047 7.49531 44.6875 7.71875 44.6875H10.5625C10.7859 44.6875 10.9688 44.5047 10.9688 44.2812V41.4375C10.9688 41.2141 10.7859 41.0312 10.5625 41.0312ZM7.71875 19.3984H10.5625C10.7859 19.3984 10.9688 19.2156 10.9688 18.9922V16.1484C10.9688 15.925 10.7859 15.7422 10.5625 15.7422H7.71875C7.49531 15.7422 7.3125 15.925 7.3125 16.1484V18.9922C7.3125 19.2156 7.49531 19.3984 7.71875 19.3984ZM10.5625 32.6016H7.71875C7.49531 32.6016 7.3125 32.7844 7.3125 33.0078V35.8516C7.3125 36.075 7.49531 36.2578 7.71875 36.2578H10.5625C10.7859 36.2578 10.9688 36.075 10.9688 35.8516V33.0078C10.9688 32.7844 10.7859 32.6016 10.5625 32.6016Z" fill="#D0000F"/>
</svg>
