<svg width="38" height="38" viewBox="0 0 38 38" fill="none" xmlns="http://www.w3.org/2000/svg">
<path d="M19 0C8.55 0 0 8.55 0 19C0 29.45 8.55 38 19 38C29.45 38 38 29.45 38 19C38 8.55 29.45 0 19 0ZM19 4.75C26.885 4.75 33.25 11.115 33.25 19C33.25 26.885 26.885 33.25 19 33.25C11.115 33.25 4.75 26.885 4.75 19C4.75 11.115 11.115 4.75 19 4.75ZM19 9.5C13.775 9.5 9.5 13.775 9.5 19C9.5 24.225 13.775 28.5 19 28.5C24.225 28.5 28.5 24.225 28.5 19C28.5 13.775 24.225 9.5 19 9.5ZM19 14.25C21.66 14.25 23.75 16.34 23.75 19C23.75 21.66 21.66 23.75 19 23.75C16.34 23.75 14.25 21.66 14.25 19C14.25 16.34 16.34 14.25 19 14.25Z" fill="#D0000F"/>
</svg>
