<svg width="794" height="501" viewBox="0 0 794 501" fill="none" xmlns="http://www.w3.org/2000/svg">
<g style="mix-blend-mode:soft-light" opacity="0.8">
<path fill-rule="evenodd" clip-rule="evenodd" d="M456.901 119.214V1.97475H392.938V77.8474C389.056 73.3329 384.978 68.9589 380.708 64.7383C338.897 23.4037 282.187 0.182129 223.057 0.182129C178.961 0.182129 135.855 13.1089 99.1903 37.3277C62.5258 61.5465 33.9493 95.9696 17.0744 136.244C0.19963 176.518 -4.21559 220.835 4.38712 263.59C12.9898 306.346 34.2241 345.619 65.4047 376.443C90.7058 401.456 121.634 419.994 155.505 430.639C146.79 452.067 139.348 474.084 133.258 496.588C133.134 496.915 133.076 497.263 133.088 497.613C133.1 497.962 133.181 498.305 133.328 498.623C133.474 498.941 133.682 499.227 133.94 499.466C134.198 499.704 134.502 499.89 134.832 500.013C135.163 500.135 135.515 500.193 135.868 500.181C136.221 500.169 136.569 500.088 136.89 499.944C137.212 499.799 137.502 499.593 137.743 499.338C137.984 499.083 138.172 498.783 138.296 498.456C149.643 476.786 162.305 455.96 176.173 436.071C177.3 436.311 178.429 436.542 179.561 436.764C222.809 445.269 267.638 440.904 308.377 424.222C341.162 410.797 370.114 389.88 392.938 363.334V439.206H732.709V375.997H456.901V221.174C459.389 220.275 461.885 219.392 464.388 218.525C476.576 216.934 481.252 225.738 487.72 237.915C497.148 255.665 510.383 280.584 556.24 290.923C586.823 297.822 618.944 295.506 650.107 291.945C657.664 291.073 665.575 290.052 673.385 288.881C720.192 281.933 758.283 282.755 788.187 283.9C793.905 284.099 794.485 278.322 790.706 276.329C727.397 243.206 646.051 247.713 628.643 248.71H623.604C612.469 248.71 601.435 246.368 592.769 239.47L591.836 238.698C587.46 234.668 584.352 229.477 582.885 223.745C581.418 218.013 581.655 211.985 583.567 206.382C585.479 200.78 588.985 195.842 593.664 192.161C598.344 188.479 603.999 186.21 609.95 185.625C620.027 185.625 621.614 185.924 637.359 192.574C649.099 198.177 656.606 201.938 656.606 201.938C679.128 214.391 685.049 209.061 685.049 209.061L701.071 197.953C718.202 186.547 713.315 179.673 713.315 179.673L710.518 173.347C703.565 161.243 701.6 140 701.6 140C700.995 121.146 679.884 103.937 679.884 103.937L673.536 97.8354C668.094 92.6552 676.911 82.5936 685.175 78.4096C685.393 78.2892 685.571 78.1087 685.687 77.89C685.802 77.6713 685.851 77.424 685.827 77.1783C685.803 76.9325 685.707 76.6991 685.551 76.5064C685.395 76.3137 685.185 76.1702 684.948 76.0934C667.086 70.6891 633.303 75.1221 620.102 77.7621C594.504 78.408 569.06 81.8916 544.248 88.1474C513.99 96.287 484.817 106.716 456.901 119.214ZM311.4 89.8838C285.251 72.6105 254.507 63.3909 223.057 63.3909C180.9 63.4436 140.484 80.0226 110.675 109.492C80.8654 138.961 64.095 178.915 64.0416 220.591C64.0416 251.682 73.3677 282.075 90.8405 307.926C108.313 333.778 133.148 353.927 162.204 365.825C168.971 368.596 175.896 370.89 182.928 372.703C227.86 290.017 292.765 218.761 372.156 165.948C371.462 164.098 370.733 162.26 369.967 160.433C357.932 131.708 337.55 107.157 311.4 89.8838ZM377.864 256.513C319.437 287.992 266.973 329.046 222.667 377.79C233.163 377.816 243.685 376.814 254.079 374.77C284.925 368.705 313.258 353.733 335.497 331.748C356.452 311.032 371.109 284.966 377.864 256.513Z" fill="white"/>
</g>
</svg>
